<svg width="32" height="32" viewBox="0 0 32 32" fill="none" xmlns="http://www.w3.org/2000/svg">
<path fill-rule="evenodd" clip-rule="evenodd" d="M6.66659 5.33333C6.66659 3.12419 8.45745 1.33333 10.6666 1.33333H21.3331C23.5423 1.33333 25.3333 3.12418 25.3333 5.33333H26.6666C28.8758 5.33333 30.6666 7.1242 30.6666 9.33333V10.1946C30.6666 11.8302 29.6707 13.301 28.1522 13.9085L24.0413 15.5528C23.4619 16.6187 22.6106 17.6953 21.3645 18.5261C20.2813 19.2481 18.9498 19.7509 17.3333 19.9289V22.6667H19.9999C22.2091 22.6667 23.9999 24.4575 23.9999 26.6667V28C23.9999 29.4728 22.8061 30.6667 21.3333 30.6667H10.6666C9.19383 30.6667 7.99992 29.4728 7.99992 28V26.6667C7.99992 24.4575 9.79079 22.6667 11.9999 22.6667H14.6666V19.9289C13.05 19.7511 11.7185 19.2481 10.6353 18.526C9.38909 17.6953 8.53772 16.6187 7.95845 15.5528L3.84769 13.9085C2.32905 13.301 1.33325 11.8302 1.33325 10.1946V9.33333C1.33325 7.1242 3.12412 5.33333 5.33325 5.33333H6.66659ZM6.66659 8H5.33325C4.59688 8 3.99992 8.59696 3.99992 9.33333V10.1946C3.99992 10.7398 4.33185 11.2301 4.83807 11.4325L6.82535 12.2275C6.73584 11.715 6.66743 11.1895 6.66659 10.668V8ZM25.3333 10.6667V8H26.6666C27.403 8 27.9999 8.59696 27.9999 9.33333V10.1946C27.9999 10.7398 27.6679 11.2301 27.1618 11.4325L25.1745 12.2275C25.2625 11.7115 25.3333 11.1905 25.3333 10.6667ZM10.6666 3.99999C9.93021 3.99999 9.33325 4.59696 9.33325 5.33333V10.6628V10.6644C9.33325 10.6666 9.33325 10.6677 9.33325 10.6644C9.34003 11.0101 9.38333 11.3568 9.44011 11.6975C9.55055 12.3602 9.76895 13.2233 10.1925 14.0704C10.6134 14.9123 11.2238 15.7135 12.1145 16.3073C12.9968 16.8955 14.2331 17.3333 15.9999 17.3333C17.7666 17.3333 19.0029 16.8955 19.8853 16.3072C20.7759 15.7135 21.3863 14.9123 21.8073 14.0704C22.2309 13.2233 22.4493 12.3601 22.5597 11.6975C22.6165 11.3565 22.6573 11.0113 22.6666 10.6654V5.33333C22.6666 4.59696 22.0695 3.99999 21.3331 3.99999H10.6666ZM11.9999 25.3333C11.2635 25.3333 10.6666 25.9303 10.6666 26.6667V28H21.3333V26.6667C21.3333 25.9303 20.7363 25.3333 19.9999 25.3333H11.9999Z" fill="#1A1A1A"/>
</svg>
