<svg width="24" height="24" viewBox="0 0 24 24" fill="none" xmlns="http://www.w3.org/2000/svg">
<path d="M11.1039 6.42584L11.5085 5.60712C11.2921 5.48504 11.0374 5.46641 10.8074 5.55584L11.1039 6.42584ZM8.66052 7.37581L8.36409 6.50581C8.10983 6.60466 7.91338 6.82468 7.83297 7.10066C7.75255 7.37663 7.79741 7.67689 7.95423 7.91243L8.66052 7.37581ZM14.5291 8.35777L14.1244 9.17649C14.3576 9.308 14.6342 9.31898 14.8758 9.20633L14.5291 8.35777ZM7.885 14.5741L7.28911 15.2465C7.52749 15.4875 7.87294 15.5641 8.18143 15.4441L7.885 14.5741ZM7.18137 13.8625L7.77726 13.1902C7.53887 12.9491 7.19343 12.8726 6.88494 12.9925L7.18137 13.8625ZM7.18137 13.8625L6.58546 14.5348C6.82385 14.7759 7.1693 14.8524 7.47779 14.7325L7.18137 13.8625ZM4.36673 11.0157L4.0703 10.1458C3.78803 10.2555 3.57908 10.5135 3.51808 10.8277C3.45707 11.1419 3.55271 11.4674 3.77083 11.6881L4.36673 11.0157ZM6.81006 10.0658L7.40596 9.39349C7.16757 9.15238 6.82212 9.07584 6.51363 9.19578L6.81006 10.0658ZM8.08943 11.3598L7.49353 12.032C7.74613 12.2876 8.11726 12.3569 8.43609 12.2083L8.08943 11.3598ZM10.5495 10.2129L10.8962 11.0615C11.1355 10.9499 11.315 10.7291 11.3848 10.4604C11.4545 10.1916 11.4071 9.90358 11.2558 9.67631L10.5495 10.2129ZM10.8074 5.55584L8.36409 6.50581L8.95696 8.24581L11.4003 7.29585L10.8074 5.55584ZM14.9338 7.53905L11.5085 5.60712L10.6992 7.24456L14.1244 9.17649L14.9338 7.53905ZM15.1844 7.04214L14.1824 7.50921L14.8758 9.20633L15.8777 8.73926L15.1844 7.04214ZM20.4343 9.44714C19.6612 7.17808 17.2561 6.07634 15.1844 7.04214L15.8777 8.73926C17.033 8.20066 18.3743 8.81507 18.8055 10.0805L20.4343 9.44714ZM19.786 10.9323C20.349 10.7134 20.6392 10.0485 20.4343 9.44714L18.8055 10.0805C18.6829 9.72083 18.8565 9.32318 19.1931 9.19228L19.786 10.9323ZM8.18143 15.4441L19.786 10.9323L19.1931 9.19228L7.58856 13.7042L8.18143 15.4441ZM6.58546 14.5348L7.28911 15.2465L8.48089 13.9019L7.77726 13.1902L6.58546 14.5348ZM7.77726 13.1902L6.36993 11.7669L5.17814 13.1115L6.58546 14.5348L7.77726 13.1902ZM6.36993 11.7669L4.96262 10.3435L3.77083 11.6881L5.17814 13.1115L6.36993 11.7669ZM4.66316 11.8857L7.1065 10.9358L6.51363 9.19578L4.0703 10.1458L4.66316 11.8857ZM6.21416 10.7381L7.49353 12.032L8.68532 10.6875L7.40596 9.39349L6.21416 10.7381ZM10.2029 9.36437L7.74277 10.5112L8.43609 12.2083L10.8962 11.0615L10.2029 9.36437ZM7.95423 7.91243L9.84325 10.7495L11.2558 9.67631L9.36681 6.83919L7.95423 7.91243Z" fill="#505050"/>
<path d="M5 18.5H19" stroke="#505050" stroke-width="2" stroke-linecap="round" stroke-linejoin="round"/>
</svg>
