<svg width="24" height="24" viewBox="0 0 24 24" fill="none" xmlns="http://www.w3.org/2000/svg">
<path d="M5.52794 16.7023C6.66028 18.2608 8.31698 19.3584 10.1937 19.7934C12.0704 20.2284 14.041 19.9716 15.7435 19.0701C17.4461 18.1687 18.7661 16.6832 19.4612 14.8865C20.1563 13.0898 20.1797 11.1027 19.5271 9.29011C18.8746 7.47756 17.5899 5.96135 15.9091 5.02005C14.2283 4.07875 12.2642 3.77558 10.3778 4.16623C8.49137 4.55689 6.80927 5.61514 5.64053 7.14656C4.47179 8.67797 3.8949 10.5797 4.01587 12.5023M4.01587 12.5023L2.51587 11.0023M4.01587 12.5023L5.51587 11.0023" stroke="#505050" stroke-width="1.5" stroke-linecap="round" stroke-linejoin="round"/>
<path d="M12 8V12L15 15" stroke="#505050" stroke-width="1.5" stroke-linecap="round" stroke-linejoin="round"/>
</svg>
