<svg width="24" height="24" viewBox="0 0 24 24" fill="none" xmlns="http://www.w3.org/2000/svg">
<path d="M4.5 18V17.1429C4.5 15.2493 5.99238 13.7143 7.83333 13.7143H11.1667C13.0076 13.7143 14.5 15.2493 14.5 17.1429V18M14.5 11.1429C15.8807 11.1429 17 9.99159 17 8.57143C17 7.15127 15.8807 6 14.5 6M19.5 18V17.1429C19.5 15.2493 18.0076 13.7143 16.1667 13.7143H15.75M12 8.57143C12 9.99159 10.8807 11.1429 9.5 11.1429C8.11929 11.1429 7 9.99159 7 8.57143C7 7.15127 8.11929 6 9.5 6C10.8807 6 12 7.15127 12 8.57143Z" stroke="#505050" stroke-width="2" stroke-linecap="round" stroke-linejoin="round"/>
</svg>
